<svg width="7" height="9" viewBox="0 0 7 9" fill="none" xmlns="http://www.w3.org/2000/svg">
<path d="M1.56995 2.29548C1.96297 1.74231 2.3339 1.23893 2.4581 0.619385C2.4581 0.619385 2.4581 0.619385 2.4581 0.606477C2.3306 0.46158 2.18447 0.337375 2.02424 0.237701C2.0087 0.226072 1.9906 0.219028 1.97178 0.217261C1.95296 0.215493 1.93403 0.219063 1.91687 0.227619C1.89971 0.236175 1.88493 0.249424 1.87392 0.266062C1.86291 0.282701 1.85608 0.302157 1.85411 0.32252C1.83572 0.439462 1.81127 0.555193 1.78092 0.66917C1.72769 0.858281 1.64483 1.03605 1.53593 1.19468C1.33177 1.49154 1.07997 1.75891 0.855392 2.04102C0.321166 2.71404 -0.0888501 3.54563 0.0166341 4.4602C0.0477602 4.73341 0.125671 4.99792 0.246334 5.24016C0.376535 4.38624 0.690697 3.57763 1.16335 2.87999C1.29265 2.68085 1.43385 2.4854 1.56995 2.29548Z" fill="#896CFE"/>
<path d="M6.32867 2.62738C6.32425 2.62582 6.31947 2.62582 6.31505 2.62738C6.31608 2.7518 6.30177 2.87583 6.27251 2.99615C6.23648 3.11065 6.1785 3.2156 6.10238 3.30408C6.03881 3.38411 5.96064 3.44902 5.8728 3.49471C5.78496 3.54041 5.68935 3.56591 5.59197 3.5696C5.43946 3.56789 5.29243 3.50781 5.17685 3.39996C4.82467 3.08281 4.7549 2.54071 4.65282 2.08712C4.54876 1.63033 4.34856 1.20584 4.06785 0.846921C3.78714 0.487998 3.43356 0.204379 3.03482 0.0182784C3.01833 0.00983039 3.00031 0.00542363 2.98207 0.00537123C2.94893 0.00532144 2.91704 0.0190689 2.89297 0.0437747C2.86891 0.0684805 2.85451 0.102258 2.85277 0.138131C2.83972 0.327525 2.81645 0.515924 2.78303 0.702359C2.59588 1.64274 1.93236 2.33788 1.43556 3.09941C0.867311 3.97525 0.46918 5.04471 0.571261 6.1326C0.697162 7.47679 1.57506 8.45958 2.64861 8.89843C2.44901 8.74156 2.28229 8.54069 2.15943 8.30902C2.03657 8.07735 1.96034 7.82012 1.93575 7.55423C1.9035 6.91403 2.07927 6.28181 2.43254 5.76751C2.71496 5.31945 3.09778 4.9101 3.20666 4.35694C3.22615 4.24731 3.23922 4.13646 3.24579 4.02504C3.24611 4.01168 3.24949 3.99861 3.25559 3.987C3.26169 3.97539 3.27033 3.96559 3.28076 3.95847C3.2912 3.95136 3.30311 3.94715 3.31541 3.94621C3.32771 3.94528 3.34004 3.94766 3.35129 3.95313C3.58115 4.066 3.78397 4.23461 3.94415 4.44593C4.10433 4.65726 4.21758 4.90565 4.27512 5.17194C4.33297 5.43745 4.3738 5.75829 4.57626 5.94452C4.85529 6.20082 5.22445 5.92608 5.22615 5.55546V5.51674L5.24148 5.49277C5.27926 5.55776 5.31282 5.62553 5.34188 5.6956V5.70482C5.51072 6.09337 5.60597 6.51465 5.62204 6.94378C5.63811 7.37291 5.57469 7.80118 5.43546 8.20328C5.37015 8.37687 5.28063 8.53856 5.17004 8.68269C5.07477 8.80541 4.9649 8.91391 4.84335 9.00537C5.37289 8.83575 5.84568 8.50333 6.20443 8.0484C6.39672 7.804 6.55339 7.52916 6.66894 7.2334C6.77115 6.96989 6.84976 6.69636 6.90371 6.41656C6.95785 6.13363 6.98917 5.84612 6.99729 5.55731C7.00605 5.26659 6.99354 4.97557 6.95987 4.68699C6.92691 4.3996 6.87341 4.1154 6.79991 3.83696C6.72815 3.56258 6.63599 3.29495 6.52431 3.03672C6.49369 2.96849 6.46135 2.89658 6.42902 2.82836L6.37627 2.71957C6.36681 2.68543 6.35059 2.65395 6.32867 2.62738Z" fill="#896CFE"/>
</svg>
