<svg width="7" height="9" viewBox="0 0 7 9" fill="none" xmlns="http://www.w3.org/2000/svg">
<path d="M1.4875 2.27129C1.84435 1.75333 2.18115 1.28199 2.29392 0.701883C2.29392 0.701883 2.29392 0.701883 2.29392 0.689797C2.17815 0.554123 2.04547 0.437824 1.89999 0.344494C1.88587 0.333606 1.86944 0.327011 1.85235 0.325355C1.83526 0.3237 1.81808 0.327043 1.80249 0.335054C1.78691 0.343066 1.77349 0.355471 1.7635 0.371051C1.7535 0.38663 1.7473 0.404848 1.74551 0.423914C1.72881 0.533413 1.70661 0.641777 1.67905 0.748499C1.63073 0.925573 1.55548 1.09202 1.45661 1.24056C1.27124 1.51853 1.0426 1.76887 0.838691 2.03303C0.353624 2.66321 -0.0186625 3.44186 0.0771152 4.29822C0.105377 4.55403 0.176119 4.80171 0.285678 5.02853C0.403898 4.22896 0.689152 3.47182 1.11831 2.81859C1.23571 2.63213 1.36392 2.44912 1.4875 2.27129Z" fill="white"/>
<path d="M5.80832 2.58206C5.80431 2.58061 5.79997 2.58061 5.79595 2.58206C5.79689 2.69857 5.7839 2.8147 5.75733 2.92736C5.72462 3.03458 5.67197 3.13284 5.60285 3.21569C5.54513 3.29063 5.47416 3.3514 5.3944 3.39419C5.31464 3.43697 5.22783 3.46085 5.13941 3.46431C5.00094 3.46271 4.86744 3.40645 4.76249 3.30547C4.44272 3.00851 4.37937 2.50091 4.28668 2.07619C4.1922 1.64847 4.01042 1.25101 3.75554 0.914936C3.50067 0.57886 3.17962 0.313294 2.81757 0.139039C2.8026 0.131129 2.78624 0.127002 2.76968 0.126953C2.73958 0.126907 2.71063 0.139779 2.68878 0.162912C2.66693 0.186045 2.65385 0.217673 2.65227 0.251263C2.64043 0.428601 2.61929 0.605008 2.58895 0.779576C2.41902 1.6601 1.81656 2.311 1.36548 3.02405C0.849513 3.84414 0.488018 4.84552 0.580706 5.86416C0.695021 7.12279 1.49213 8.04303 2.4669 8.45394C2.28566 8.30706 2.13429 8.11898 2.02273 7.90205C1.91118 7.68512 1.84197 7.44427 1.81964 7.19531C1.79035 6.59585 1.94995 6.00388 2.27071 5.52231C2.52715 5.10277 2.87473 4.71948 2.9736 4.20153C2.99129 4.09888 3.00316 3.99508 3.00913 3.89076C3.00942 3.87825 3.01249 3.86601 3.01803 3.85514C3.02357 3.84427 3.03141 3.83509 3.04088 3.82843C3.05036 3.82177 3.06117 3.81782 3.07234 3.81695C3.08351 3.81608 3.09471 3.8183 3.10492 3.82342C3.31363 3.92911 3.49779 4.08698 3.64323 4.28486C3.78867 4.48273 3.8915 4.71532 3.94374 4.96465C3.99626 5.21327 4.03334 5.51368 4.21717 5.68806C4.47052 5.92805 4.80571 5.67079 4.80726 5.32377V5.28751L4.82118 5.26506C4.85548 5.32592 4.88595 5.38938 4.91233 5.45498V5.46361C5.06564 5.82743 5.15213 6.2219 5.16672 6.62371C5.18131 7.02553 5.12372 7.42653 4.9973 7.80304C4.93801 7.96558 4.85672 8.11697 4.75631 8.25194C4.66981 8.36684 4.57005 8.46844 4.45968 8.55408C4.94049 8.39525 5.36978 8.08399 5.69552 7.65801C5.87011 7.42918 6.01237 7.17183 6.11728 6.89489C6.21009 6.64816 6.28146 6.39204 6.33045 6.13005C6.37961 5.86513 6.40804 5.59592 6.41542 5.32549C6.42338 5.05328 6.41202 4.78078 6.38144 4.51058C6.35151 4.24147 6.30293 3.97537 6.2362 3.71465C6.17104 3.45773 6.08737 3.20714 5.98596 2.96534C5.95815 2.90146 5.92879 2.83413 5.89944 2.77025L5.85154 2.66838C5.84296 2.63642 5.82822 2.60695 5.80832 2.58206Z" fill="white"/>
</svg>
