<svg width="9" height="9" viewBox="0 0 9 9" fill="none" xmlns="http://www.w3.org/2000/svg">
<path d="M8.15444 4.78342C8.15444 4.94216 8.09176 5.0944 7.9802 5.20664C7.86865 5.31889 7.71736 5.38194 7.5596 5.38194C7.5282 5.38117 7.49691 5.37818 7.46593 5.37297H7.43616C6.9427 5.28672 6.48403 5.06036 6.11416 4.72057L6.67181 3.54149C6.77974 3.71449 6.92312 3.86232 7.09238 3.97509C7.26164 4.08785 7.45288 4.16294 7.65331 4.19537C7.79356 4.2178 7.9212 4.29 8.01317 4.39888C8.10379 4.50633 8.15381 4.6425 8.15444 4.78342Z" fill="white"/>
<path d="M3.92965 6.26925C3.77241 6.39244 3.60116 6.4964 3.41955 6.57897C3.03204 6.74982 2.61281 6.83553 2.18976 6.83036C1.83741 6.83137 1.48678 6.78097 1.1488 6.68073C1.0001 6.63168 0.876595 6.52564 0.805057 6.3856C0.733519 6.24556 0.719701 6.0828 0.76661 5.93258C0.798259 5.83511 0.854265 5.74745 0.92926 5.67802C1.00425 5.60858 1.09571 5.5597 1.19487 5.53606C1.45065 5.47471 1.69752 5.60639 1.94735 5.63482C2.21484 5.66469 2.48559 5.63923 2.74295 5.56C2.90455 5.51235 3.05586 5.4347 3.18908 5.33107C3.22532 5.44973 3.27523 5.56373 3.33779 5.67073C3.48499 5.91473 3.68788 6.11991 3.92965 6.26925Z" fill="white"/>
<path d="M7.94029 8.32963C7.94029 8.38916 7.91677 8.44625 7.87494 8.48834C7.83311 8.53043 7.77639 8.55408 7.71723 8.55408H2.95855C2.89939 8.55408 2.84263 8.53043 2.8008 8.48834C2.75896 8.44625 2.73548 8.38916 2.73548 8.32963C2.73548 8.27011 2.75896 8.21303 2.8008 8.17094C2.84263 8.12885 2.89939 8.10519 2.95855 8.10519H5.93272C5.96692 8.10519 5.97883 8.09622 5.97585 8.05731C5.96539 7.83313 5.94156 7.60978 5.90447 7.38848C5.85533 7.1279 5.76066 6.87813 5.62488 6.6508C5.54969 6.52804 5.45868 6.41585 5.35422 6.31713C5.32002 6.2857 5.28284 6.25428 5.24418 6.22286C5.10137 6.11052 4.9397 6.02488 4.76683 5.96999C4.39655 5.8443 4.06345 5.7246 3.85229 5.37148C3.77469 5.24061 3.72521 5.09484 3.70703 4.94356C3.68884 4.79228 3.70236 4.63885 3.74671 4.49315C3.79727 4.36148 3.87311 4.23278 3.93408 4.1056L4.43224 3.04623C4.44562 3.0178 4.52445 2.78737 4.55716 2.77988C4.43536 2.80351 4.31556 2.83653 4.19879 2.87864C3.78956 3.03349 3.4146 3.26787 3.09535 3.56843C3.03735 3.6211 2.96961 3.66177 2.89599 3.68809C2.82238 3.71441 2.74434 3.72587 2.66632 3.72184C2.5883 3.71781 2.51181 3.69837 2.44126 3.6646C2.37071 3.63083 2.30749 3.5834 2.25516 3.52504C2.20281 3.46668 2.16238 3.39853 2.13622 3.32446C2.11006 3.25039 2.09867 3.17186 2.10267 3.09335C2.10668 3.01485 2.126 2.9379 2.15956 2.86692C2.19312 2.79593 2.24028 2.7323 2.29829 2.67964C2.73241 2.27492 3.24114 1.95973 3.79576 1.75193C4.18948 1.60769 4.60509 1.53327 5.02409 1.53198C5.23428 1.5316 5.44399 1.55215 5.65015 1.59333C5.70514 1.5974 5.75925 1.60949 5.81077 1.62924C5.88077 1.6396 5.94922 1.6587 6.01452 1.6861C6.23281 1.77798 6.40588 1.95335 6.49568 2.17362C6.58548 2.3939 6.58464 2.64104 6.49336 2.86069L6.44874 2.96842L5.49255 4.98991C5.54906 5.01685 5.60704 5.04527 5.66206 5.07519C5.71708 5.10512 5.81076 5.16648 5.87917 5.21586C6.09534 5.37011 6.28863 5.5545 6.4532 5.7635C6.78592 6.20467 7.00509 6.72176 7.09117 7.26877C7.15001 7.54653 7.16307 7.83214 7.12983 8.11417C7.32464 8.11417 7.51944 8.11417 7.71425 8.11417C7.77241 8.11335 7.82857 8.13541 7.8708 8.17566C7.91302 8.21591 7.93797 8.27115 7.94029 8.32963Z" fill="white"/>
<path d="M1.87596 8.10518H1.3391C1.27994 8.10518 1.22322 8.12885 1.18139 8.17094C1.13956 8.21303 1.11604 8.2701 1.11604 8.32963C1.11604 8.38915 1.13956 8.44624 1.18139 8.48833C1.22322 8.53043 1.27994 8.55407 1.3391 8.55407H1.87596C1.93512 8.55407 1.99184 8.53043 2.03367 8.48833C2.0755 8.44624 2.09902 8.38915 2.09902 8.32963C2.09902 8.2701 2.0755 8.21303 2.03367 8.17094C1.99184 8.12885 1.93512 8.10518 1.87596 8.10518Z" fill="white"/>
<path d="M6.55582 1.55442C6.94758 1.55442 7.26516 1.23487 7.26516 0.840685C7.26516 0.446502 6.94758 0.126953 6.55582 0.126953C6.16406 0.126953 5.84648 0.446502 5.84648 0.840685C5.84648 1.23487 6.16406 1.55442 6.55582 1.55442Z" fill="white"/>
</svg>
