<svg width="66" height="79" viewBox="0 0 66 79" fill="none" xmlns="http://www.w3.org/2000/svg">
<ellipse cx="33" cy="41.5" rx="32" ry="32.5" stroke="url(#paint0_linear_154_492)" stroke-width="2"/>
<path d="M34.9834 1C34.4482 2.74695 33.458 6.57948 33.7791 7.93403C34.1806 9.62723 34.5017 13.3361 36.6694 15.1099C38.837 16.8838 43.4132 19.0607 44.3766 19.3026C45.34 19.5445 50.6387 23.6565 50.9598 28.8168C51.281 33.977 49.595 37.0408 48.7922 38.8147C47.9893 40.5885 46.7048 41.7979 46.3034 43.8942C45.902 45.9906 44.778 51.3927 44.0555 53.7309C43.3329 56.0691 43.0118 56.2304 42.7709 59.2136C42.5301 62.1969 43.4935 62.6806 42.7709 67.5183C42.1929 71.3885 40.9779 76.1187 40.4427 78M20.1309 11.3204C21.7901 13.5243 25.3012 18.835 26.0719 22.4471C26.5428 24.0808 28.2644 26.3187 29.8198 28.0911M34.5017 74.6136C34.4673 72.9184 34.3242 69.992 34.004 67.7602M29.8198 28.0911C30.5981 28.9779 31.3347 29.7482 31.8523 30.2681C31.9636 30.5099 32.2157 31.1872 32.334 31.9613C33.0566 33.8157 30.9692 35.9927 30.6481 39.7016C30.4662 41.8024 30.1297 43.955 30.1202 46.555M29.8198 28.0911C29.079 28.978 27.0996 31.0421 25.1085 32.2031C22.6197 33.6545 16.1168 40.4272 15.3942 41.8785C14.6717 43.3298 12.3434 46.3937 11.7012 47.2806C11.0589 48.1675 8.57011 51.6346 11.1392 55.1016C13.7083 58.5686 23.262 65.1801 26.7945 70.5822C29.6205 74.9039 29.163 74.4186 29.3636 74.6136M30.1202 46.555C30.1129 48.5451 30.2972 50.7973 30.8889 53.489C31.9808 58.4557 32.2002 61.31 32.1735 62.1162C32.2002 62.5194 32.4625 63.6643 33.2975 65.0188C33.595 65.5016 33.8266 66.5244 34.004 67.7602M30.1202 46.555C27.8341 48.1675 23.1335 51.4894 22.6197 51.8764C22.3039 52.1143 21.9493 52.5276 21.5941 52.9246M20.5324 53.8921C20.8588 53.7282 21.2268 53.3351 21.5941 52.9246M21.5941 52.9246C22.8191 53.6771 25.4618 55.5047 26.2325 56.7948C27.1959 58.4073 30.9692 64.8576 32.7355 66.4702C34.1485 67.7602 33.7792 67.5183 34.004 67.7602" stroke="url(#paint1_linear_154_492)"/>
<defs>
<linearGradient id="paint0_linear_154_492" x1="33" y1="9" x2="33" y2="74" gradientUnits="userSpaceOnUse">
<stop stop-color="#F6F3BA"/>
<stop offset="1" stop-color="#D6EBEB"/>
</linearGradient>
<linearGradient id="paint1_linear_154_492" x1="30.5" y1="1" x2="30.5" y2="78" gradientUnits="userSpaceOnUse">
<stop stop-color="#F6F3BA"/>
<stop offset="1" stop-color="#D6EBEB"/>
</linearGradient>
</defs>
</svg>
