<svg width="289" height="143" viewBox="0 0 289 143" fill="none" xmlns="http://www.w3.org/2000/svg">
<path d="M58.7073 122.988C60.0273 123.406 61.0613 124.11 61.8093 125.1C62.5573 126.068 62.9313 127.267 62.9313 128.697C62.9313 130.721 62.1393 132.283 60.5553 133.383C58.9933 134.461 56.7053 135 53.6913 135H41.7453V111.9H53.0313C55.8473 111.9 58.0033 112.439 59.4993 113.517C61.0173 114.595 61.7763 116.058 61.7763 117.906C61.7763 119.028 61.5013 120.029 60.9513 120.909C60.4233 121.789 59.6753 122.482 58.7073 122.988ZM47.0583 115.926V121.371H52.3713C53.6913 121.371 54.6923 121.14 55.3743 120.678C56.0563 120.216 56.3973 119.534 56.3973 118.632C56.3973 117.73 56.0563 117.059 55.3743 116.619C54.6923 116.157 53.6913 115.926 52.3713 115.926H47.0583ZM53.2953 130.974C54.7033 130.974 55.7593 130.743 56.4633 130.281C57.1893 129.819 57.5523 129.104 57.5523 128.136C57.5523 126.222 56.1333 125.265 53.2953 125.265H47.0583V130.974H53.2953ZM75.0637 135.264C73.1937 135.264 71.5107 134.879 70.0147 134.109C68.5407 133.317 67.3857 132.228 66.5497 130.842C65.7137 129.456 65.2957 127.883 65.2957 126.123C65.2957 124.363 65.7137 122.79 66.5497 121.404C67.3857 120.018 68.5407 118.94 70.0147 118.17C71.5107 117.378 73.1937 116.982 75.0637 116.982C76.9337 116.982 78.6057 117.378 80.0797 118.17C81.5537 118.94 82.7087 120.018 83.5447 121.404C84.3807 122.79 84.7987 124.363 84.7987 126.123C84.7987 127.883 84.3807 129.456 83.5447 130.842C82.7087 132.228 81.5537 133.317 80.0797 134.109C78.6057 134.879 76.9337 135.264 75.0637 135.264ZM75.0637 131.04C76.3837 131.04 77.4617 130.6 78.2977 129.72C79.1557 128.818 79.5847 127.619 79.5847 126.123C79.5847 124.627 79.1557 123.439 78.2977 122.559C77.4617 121.657 76.3837 121.206 75.0637 121.206C73.7437 121.206 72.6547 121.657 71.7967 122.559C70.9387 123.439 70.5097 124.627 70.5097 126.123C70.5097 127.619 70.9387 128.818 71.7967 129.72C72.6547 130.6 73.7437 131.04 75.0637 131.04ZM106.324 110.514V135H101.407V132.954C100.131 134.494 98.2828 135.264 95.8628 135.264C94.1908 135.264 92.6728 134.89 91.3088 134.142C89.9668 133.394 88.9108 132.327 88.1408 130.941C87.3708 129.555 86.9858 127.949 86.9858 126.123C86.9858 124.297 87.3708 122.691 88.1408 121.305C88.9108 119.919 89.9668 118.852 91.3088 118.104C92.6728 117.356 94.1908 116.982 95.8628 116.982C98.1288 116.982 99.8998 117.697 101.176 119.127V110.514H106.324ZM96.7538 131.04C98.0518 131.04 99.1298 130.6 99.9878 129.72C100.846 128.818 101.275 127.619 101.275 126.123C101.275 124.627 100.846 123.439 99.9878 122.559C99.1298 121.657 98.0518 121.206 96.7538 121.206C95.4338 121.206 94.3448 121.657 93.4868 122.559C92.6288 123.439 92.1998 124.627 92.1998 126.123C92.1998 127.619 92.6288 128.818 93.4868 129.72C94.3448 130.6 95.4338 131.04 96.7538 131.04ZM128.974 117.246V132.03C128.974 135.286 128.149 137.706 126.499 139.29C124.849 140.874 122.451 141.666 119.305 141.666C117.633 141.666 116.049 141.457 114.553 141.039C113.079 140.621 111.836 140.016 110.824 139.224L112.87 135.528C113.618 136.144 114.531 136.628 115.609 136.98C116.687 137.332 117.776 137.508 118.876 137.508C120.592 137.508 121.846 137.112 122.638 136.32C123.43 135.528 123.826 134.318 123.826 132.69V132.096C123.166 132.756 122.385 133.262 121.483 133.614C120.581 133.966 119.613 134.142 118.579 134.142C116.247 134.142 114.399 133.482 113.035 132.162C111.671 130.82 110.989 128.818 110.989 126.156V117.246H116.137V125.397C116.137 128.279 117.336 129.72 119.734 129.72C120.966 129.72 121.956 129.324 122.704 128.532C123.452 127.718 123.826 126.519 123.826 124.935V117.246H128.974Z" fill="url(#paint0_linear_277_1340)"/>
<path d="M164.638 111.9V135H159.292V125.529H148.798V135H143.452V111.9H148.798V121.008H159.292V111.9H164.638ZM178.189 135.264C176.319 135.264 174.636 134.879 173.14 134.109C171.666 133.317 170.511 132.228 169.675 130.842C168.839 129.456 168.421 127.883 168.421 126.123C168.421 124.363 168.839 122.79 169.675 121.404C170.511 120.018 171.666 118.94 173.14 118.17C174.636 117.378 176.319 116.982 178.189 116.982C180.059 116.982 181.731 117.378 183.205 118.17C184.679 118.94 185.834 120.018 186.67 121.404C187.506 122.79 187.924 124.363 187.924 126.123C187.924 127.883 187.506 129.456 186.67 130.842C185.834 132.228 184.679 133.317 183.205 134.109C181.731 134.879 180.059 135.264 178.189 135.264ZM178.189 131.04C179.509 131.04 180.587 130.6 181.423 129.72C182.281 128.818 182.71 127.619 182.71 126.123C182.71 124.627 182.281 123.439 181.423 122.559C180.587 121.657 179.509 121.206 178.189 121.206C176.869 121.206 175.78 121.657 174.922 122.559C174.064 123.439 173.635 124.627 173.635 126.123C173.635 127.619 174.064 128.818 174.922 129.72C175.78 130.6 176.869 131.04 178.189 131.04ZM209.251 117.246V135H204.367V132.888C203.685 133.658 202.871 134.252 201.925 134.67C200.979 135.066 199.956 135.264 198.856 135.264C196.524 135.264 194.676 134.593 193.312 133.251C191.948 131.909 191.266 129.918 191.266 127.278V117.246H196.414V126.519C196.414 129.379 197.613 130.809 200.011 130.809C201.243 130.809 202.233 130.413 202.981 129.621C203.729 128.807 204.103 127.608 204.103 126.024V117.246H209.251ZM219.993 135.264C218.519 135.264 217.078 135.088 215.67 134.736C214.262 134.362 213.14 133.9 212.304 133.35L214.02 129.654C214.812 130.16 215.769 130.578 216.891 130.908C218.013 131.216 219.113 131.37 220.191 131.37C222.369 131.37 223.458 130.831 223.458 129.753C223.458 129.247 223.161 128.884 222.567 128.664C221.973 128.444 221.06 128.257 219.828 128.103C218.376 127.883 217.177 127.63 216.231 127.344C215.285 127.058 214.46 126.552 213.756 125.826C213.074 125.1 212.733 124.066 212.733 122.724C212.733 121.602 213.052 120.612 213.69 119.754C214.35 118.874 215.296 118.192 216.528 117.708C217.782 117.224 219.256 116.982 220.95 116.982C222.204 116.982 223.447 117.125 224.679 117.411C225.933 117.675 226.967 118.049 227.781 118.533L226.065 122.196C224.503 121.316 222.798 120.876 220.95 120.876C219.85 120.876 219.025 121.03 218.475 121.338C217.925 121.646 217.65 122.042 217.65 122.526C217.65 123.076 217.947 123.461 218.541 123.681C219.135 123.901 220.081 124.11 221.379 124.308C222.831 124.55 224.019 124.814 224.943 125.1C225.867 125.364 226.67 125.859 227.352 126.585C228.034 127.311 228.375 128.323 228.375 129.621C228.375 130.721 228.045 131.7 227.385 132.558C226.725 133.416 225.757 134.087 224.481 134.571C223.227 135.033 221.731 135.264 219.993 135.264ZM240.494 131.139C241.418 131.139 242.232 131.007 242.936 130.743C243.662 130.457 244.333 130.017 244.949 129.423L247.688 132.393C246.016 134.307 243.574 135.264 240.362 135.264C238.36 135.264 236.589 134.879 235.049 134.109C233.509 133.317 232.321 132.228 231.485 130.842C230.649 129.456 230.231 127.883 230.231 126.123C230.231 124.385 230.638 122.823 231.452 121.437C232.288 120.029 233.421 118.94 234.851 118.17C236.303 117.378 237.931 116.982 239.735 116.982C241.429 116.982 242.969 117.345 244.355 118.071C245.741 118.775 246.841 119.809 247.655 121.173C248.491 122.515 248.909 124.11 248.909 125.958L235.775 128.499C236.149 129.379 236.732 130.039 237.524 130.479C238.338 130.919 239.328 131.139 240.494 131.139ZM239.735 120.876C238.437 120.876 237.381 121.294 236.567 122.13C235.753 122.966 235.324 124.121 235.28 125.595L243.926 123.912C243.684 122.988 243.189 122.251 242.441 121.701C241.693 121.151 240.791 120.876 239.735 120.876Z" fill="white"/>
<ellipse cx="144" cy="38.5" rx="32" ry="32.5" stroke="url(#paint1_linear_277_1340)" stroke-width="2"/>
<path d="M147.821 38.9293C147.4 39.6884 146.068 41.3877 145.622 42.0901C145.175 42.7925 143.621 44.7236 143.213 45.4265C142.856 46.0411 142.588 46.2166 142.41 48.8506C142.275 49.9356 142.027 51.9018 141.884 52.9772M139.823 73.2588C138.841 70.3615 140.536 59.6499 140.804 58.6842C141.072 57.7184 141.696 54.2064 141.785 53.6796C141.803 53.577 141.838 53.3232 141.884 52.9772M124.745 5.12657C124.983 8.14101 125.316 14.9952 124.745 18.2965C124.031 22.423 125.816 30.6762 125.905 31.7298C125.994 32.7834 125.102 38.3147 124.745 39.5439C124.388 40.7731 122.961 50.9578 125.37 57.8062C127.778 64.6545 130.009 68.0787 130.366 73.2588M143.213 1C141.666 4.04371 138.681 10.6052 139.109 12.5017C139.644 14.8723 139.555 16.7161 141.785 18.2965C144.016 19.8769 147.553 21.2816 148.833 22.5986C150.253 24.0591 151.867 26.0228 152.67 29.6226C153.312 32.5024 152.699 35.271 152.313 36.2953C152.164 37.6708 152.259 41.616 153.829 46.3922C155.4 51.1685 156.922 56.9867 157.487 59.2987C158.29 61.6401 160.717 67.3412 164 71.4151M141.884 52.9772C143.07 55.4063 145.657 60.5631 146.514 61.7571C147.584 63.2497 150.172 64.4789 153.829 69.0445C156.756 72.6969 158.558 76.5367 159.093 78" stroke="url(#paint2_linear_277_1340)"/>
<defs>
<linearGradient id="paint0_linear_277_1340" x1="0" y1="123" x2="289" y2="123" gradientUnits="userSpaceOnUse">
<stop stop-color="#F6F3BA"/>
<stop offset="1" stop-color="#D6EBEB"/>
</linearGradient>
<linearGradient id="paint1_linear_277_1340" x1="144" y1="6" x2="144" y2="71" gradientUnits="userSpaceOnUse">
<stop stop-color="#F6F3BA"/>
<stop offset="1" stop-color="#D6EBEB"/>
</linearGradient>
<linearGradient id="paint2_linear_277_1340" x1="144" y1="1" x2="144" y2="78" gradientUnits="userSpaceOnUse">
<stop stop-color="#F6F3BA"/>
<stop offset="1" stop-color="#D6EBEB"/>
</linearGradient>
</defs>
</svg>
