<svg width="66" height="94" viewBox="0 0 66 94" fill="none" xmlns="http://www.w3.org/2000/svg">
<ellipse cx="33" cy="33.5" rx="32" ry="32.5" stroke="url(#paint0_linear_154_494)" stroke-width="2"/>
<path d="M41.8525 18.7001C41.3278 20.5559 39.9375 24.3471 38.5734 24.6653C36.8683 25.063 36.9995 25.1292 36.6716 25.2618M37.393 26.1234C37.0869 25.9025 36.383 25.3546 36.0158 24.9304C35.5567 24.4002 33.1958 23.7374 28.4084 24.9304M28.933 16.2477C27.6651 17.3745 25.1842 19.8123 24.867 20.2245C24.4079 20.821 22.1126 22.2792 21.5223 24.4002C21.4937 24.6124 21.4401 24.9349 21.3669 25.2618M20.9977 26.3223C21.1455 26.1132 21.2725 25.6838 21.3669 25.2618M28.8018 25.1292C27.993 25.0188 26.2704 24.7713 25.8507 24.6653C25.326 24.5327 23.0478 24.5327 21.3669 25.2618M26.8344 13C25.4353 14.0605 22.3093 16.3405 20.9977 16.9768C19.3581 17.7722 15.2265 21.2187 14.9642 22.0141C14.7019 22.8094 12.8 24.0688 12.2098 24.6653C11.6196 25.2618 10.0456 27.1176 11.8163 28.5758C13.587 30.034 15.8994 32.0224 21.3669 33.6131C26.8344 35.2038 28.6707 30.8293 31.3595 34.0108C31.9497 38.3853 32.8679 39.4457 34.4418 41.8981C36.0158 44.3505 43.2297 55.8169 43.6232 57.2751C44.0167 58.7332 45.3939 59.3297 43.2953 61.7158C41.1967 64.1019 37.7209 67.8136 40.8032 88.3604M58.2478 32.0224C57.7669 32.8398 56.9493 34.9917 57.5264 37.0597C58.2478 39.6446 58.1822 40.9702 57.0017 43.7539C55.8213 46.5377 58.379 52.1052 61.9859 56.6785C65.5929 61.2519 65.7896 77.5568 63.4943 93" stroke="url(#paint1_linear_154_494)"/>
<defs>
<linearGradient id="paint0_linear_154_494" x1="33" y1="1" x2="33" y2="66" gradientUnits="userSpaceOnUse">
<stop stop-color="#F6F3BA"/>
<stop offset="1" stop-color="#D6EBEB"/>
</linearGradient>
<linearGradient id="paint1_linear_154_494" x1="38" y1="13" x2="38" y2="93" gradientUnits="userSpaceOnUse">
<stop stop-color="#F6F3BA"/>
<stop offset="1" stop-color="#D6EBEB"/>
</linearGradient>
</defs>
</svg>
