<svg width="180" height="50" viewBox="0 0 180 50" fill="none" xmlns="http://www.w3.org/2000/svg">
<path d="M70.5033 24.54C71.1033 24.73 71.5733 25.05 71.9133 25.5C72.2533 25.94 72.4233 26.485 72.4233 27.135C72.4233 28.055 72.0633 28.765 71.3433 29.265C70.6333 29.755 69.5933 30 68.2233 30H62.7933V19.5H67.9233C69.2033 19.5 70.1833 19.745 70.8633 20.235C71.5533 20.725 71.8983 21.39 71.8983 22.23C71.8983 22.74 71.7733 23.195 71.5233 23.595C71.2833 23.995 70.9433 24.31 70.5033 24.54ZM65.2083 21.33V23.805H67.6233C68.2233 23.805 68.6783 23.7 68.9883 23.49C69.2983 23.28 69.4533 22.97 69.4533 22.56C69.4533 22.15 69.2983 21.845 68.9883 21.645C68.6783 21.435 68.2233 21.33 67.6233 21.33H65.2083ZM68.0433 28.17C68.6833 28.17 69.1633 28.065 69.4833 27.855C69.8133 27.645 69.9783 27.32 69.9783 26.88C69.9783 26.01 69.3333 25.575 68.0433 25.575H65.2083V28.17H68.0433ZM77.9381 30.12C77.0881 30.12 76.3231 29.945 75.6431 29.595C74.9731 29.235 74.4481 28.74 74.0681 28.11C73.6881 27.48 73.4981 26.765 73.4981 25.965C73.4981 25.165 73.6881 24.45 74.0681 23.82C74.4481 23.19 74.9731 22.7 75.6431 22.35C76.3231 21.99 77.0881 21.81 77.9381 21.81C78.7881 21.81 79.5481 21.99 80.2181 22.35C80.8881 22.7 81.4131 23.19 81.7931 23.82C82.1731 24.45 82.3631 25.165 82.3631 25.965C82.3631 26.765 82.1731 27.48 81.7931 28.11C81.4131 28.74 80.8881 29.235 80.2181 29.595C79.5481 29.945 78.7881 30.12 77.9381 30.12ZM77.9381 28.2C78.5381 28.2 79.0281 28 79.4081 27.6C79.7981 27.19 79.9931 26.645 79.9931 25.965C79.9931 25.285 79.7981 24.745 79.4081 24.345C79.0281 23.935 78.5381 23.73 77.9381 23.73C77.3381 23.73 76.8431 23.935 76.4531 24.345C76.0631 24.745 75.8681 25.285 75.8681 25.965C75.8681 26.645 76.0631 27.19 76.4531 27.6C76.8431 28 77.3381 28.2 77.9381 28.2ZM92.1472 18.87V30H89.9122V29.07C89.3322 29.77 88.4922 30.12 87.3922 30.12C86.6322 30.12 85.9422 29.95 85.3222 29.61C84.7122 29.27 84.2322 28.785 83.8822 28.155C83.5322 27.525 83.3572 26.795 83.3572 25.965C83.3572 25.135 83.5322 24.405 83.8822 23.775C84.2322 23.145 84.7122 22.66 85.3222 22.32C85.9422 21.98 86.6322 21.81 87.3922 21.81C88.4222 21.81 89.2272 22.135 89.8072 22.785V18.87H92.1472ZM87.7972 28.2C88.3872 28.2 88.8772 28 89.2672 27.6C89.6572 27.19 89.8522 26.645 89.8522 25.965C89.8522 25.285 89.6572 24.745 89.2672 24.345C88.8772 23.935 88.3872 23.73 87.7972 23.73C87.1972 23.73 86.7022 23.935 86.3122 24.345C85.9222 24.745 85.7272 25.285 85.7272 25.965C85.7272 26.645 85.9222 27.19 86.3122 27.6C86.7022 28 87.1972 28.2 87.7972 28.2ZM102.443 21.93V28.65C102.443 30.13 102.068 31.23 101.318 31.95C100.568 32.67 99.4779 33.03 98.0479 33.03C97.2879 33.03 96.5679 32.935 95.8879 32.745C95.2179 32.555 94.6529 32.28 94.1929 31.92L95.1229 30.24C95.4629 30.52 95.8779 30.74 96.3679 30.9C96.8579 31.06 97.3529 31.14 97.8529 31.14C98.6329 31.14 99.2029 30.96 99.5629 30.6C99.9229 30.24 100.103 29.69 100.103 28.95V28.68C99.8029 28.98 99.4479 29.21 99.0379 29.37C98.6279 29.53 98.1879 29.61 97.7179 29.61C96.6579 29.61 95.8179 29.31 95.1979 28.71C94.5779 28.1 94.2679 27.19 94.2679 25.98V21.93H96.6079V25.635C96.6079 26.945 97.1529 27.6 98.2429 27.6C98.8029 27.6 99.2529 27.42 99.5929 27.06C99.9329 26.69 100.103 26.145 100.103 25.425V21.93H102.443Z" fill="url(#paint0_linear_338_1387)"/>
<path d="M118.654 19.5V30H116.224V25.695H111.454V30H109.024V19.5H111.454V23.64H116.224V19.5H118.654ZM124.813 30.12C123.963 30.12 123.198 29.945 122.518 29.595C121.848 29.235 121.323 28.74 120.943 28.11C120.563 27.48 120.373 26.765 120.373 25.965C120.373 25.165 120.563 24.45 120.943 23.82C121.323 23.19 121.848 22.7 122.518 22.35C123.198 21.99 123.963 21.81 124.813 21.81C125.663 21.81 126.423 21.99 127.093 22.35C127.763 22.7 128.288 23.19 128.668 23.82C129.048 24.45 129.238 25.165 129.238 25.965C129.238 26.765 129.048 27.48 128.668 28.11C128.288 28.74 127.763 29.235 127.093 29.595C126.423 29.945 125.663 30.12 124.813 30.12ZM124.813 28.2C125.413 28.2 125.903 28 126.283 27.6C126.673 27.19 126.868 26.645 126.868 25.965C126.868 25.285 126.673 24.745 126.283 24.345C125.903 23.935 125.413 23.73 124.813 23.73C124.213 23.73 123.718 23.935 123.328 24.345C122.938 24.745 122.743 25.285 122.743 25.965C122.743 26.645 122.938 27.19 123.328 27.6C123.718 28 124.213 28.2 124.813 28.2ZM138.932 21.93V30H136.712V29.04C136.402 29.39 136.032 29.66 135.602 29.85C135.172 30.03 134.707 30.12 134.207 30.12C133.147 30.12 132.307 29.815 131.687 29.205C131.067 28.595 130.757 27.69 130.757 26.49V21.93H133.097V26.145C133.097 27.445 133.642 28.095 134.732 28.095C135.292 28.095 135.742 27.915 136.082 27.555C136.422 27.185 136.592 26.64 136.592 25.92V21.93H138.932ZM143.815 30.12C143.145 30.12 142.49 30.04 141.85 29.88C141.21 29.71 140.7 29.5 140.32 29.25L141.1 27.57C141.46 27.8 141.895 27.99 142.405 28.14C142.915 28.28 143.415 28.35 143.905 28.35C144.895 28.35 145.39 28.105 145.39 27.615C145.39 27.385 145.255 27.22 144.985 27.12C144.715 27.02 144.3 26.935 143.74 26.865C143.08 26.765 142.535 26.65 142.105 26.52C141.675 26.39 141.3 26.16 140.98 25.83C140.67 25.5 140.515 25.03 140.515 24.42C140.515 23.91 140.66 23.46 140.95 23.07C141.25 22.67 141.68 22.36 142.24 22.14C142.81 21.92 143.48 21.81 144.25 21.81C144.82 21.81 145.385 21.875 145.945 22.005C146.515 22.125 146.985 22.295 147.355 22.515L146.575 24.18C145.865 23.78 145.09 23.58 144.25 23.58C143.75 23.58 143.375 23.65 143.125 23.79C142.875 23.93 142.75 24.11 142.75 24.33C142.75 24.58 142.885 24.755 143.155 24.855C143.425 24.955 143.855 25.05 144.445 25.14C145.105 25.25 145.645 25.37 146.065 25.5C146.485 25.62 146.85 25.845 147.16 26.175C147.47 26.505 147.625 26.965 147.625 27.555C147.625 28.055 147.475 28.5 147.175 28.89C146.875 29.28 146.435 29.585 145.855 29.805C145.285 30.015 144.605 30.12 143.815 30.12ZM153.134 28.245C153.554 28.245 153.924 28.185 154.244 28.065C154.574 27.935 154.879 27.735 155.159 27.465L156.404 28.815C155.644 29.685 154.534 30.12 153.074 30.12C152.164 30.12 151.359 29.945 150.659 29.595C149.959 29.235 149.419 28.74 149.039 28.11C148.659 27.48 148.469 26.765 148.469 25.965C148.469 25.175 148.654 24.465 149.024 23.835C149.404 23.195 149.919 22.7 150.569 22.35C151.229 21.99 151.969 21.81 152.789 21.81C153.559 21.81 154.259 21.975 154.889 22.305C155.519 22.625 156.019 23.095 156.389 23.715C156.769 24.325 156.959 25.05 156.959 25.89L150.989 27.045C151.159 27.445 151.424 27.745 151.784 27.945C152.154 28.145 152.604 28.245 153.134 28.245ZM152.789 23.58C152.199 23.58 151.719 23.77 151.349 24.15C150.979 24.53 150.784 25.055 150.764 25.725L154.694 24.96C154.584 24.54 154.359 24.205 154.019 23.955C153.679 23.705 153.269 23.58 152.789 23.58Z" fill="white"/>
<ellipse cx="21" cy="26.3125" rx="20" ry="20.3125" stroke="url(#paint1_linear_338_1387)" stroke-width="2"/>
<path d="M22.2396 1C21.9051 2.09184 21.2863 4.48717 21.487 5.33377C21.7379 6.39202 21.9386 8.71008 23.2933 9.81872C24.6481 10.9274 27.5082 12.288 28.1104 12.4391C28.7125 12.5903 32.0242 15.1603 32.2249 18.3855C32.4256 21.6106 31.3719 23.5255 30.8701 24.6342C30.3683 25.7428 29.5655 26.4987 29.3146 27.8089C29.0637 29.1191 28.3613 32.4954 27.9097 33.9568C27.4581 35.4182 27.2574 35.519 27.1068 37.3835C26.9563 39.248 27.5584 39.5504 27.1068 42.574C26.7455 44.9928 25.9862 47.9492 25.6517 49.125M12.9568 7.45026C13.9938 8.82766 16.1883 12.1469 16.67 14.4045C16.9643 15.4255 18.0402 16.8242 19.0124 17.9319M21.9386 47.0085C21.917 45.949 21.8276 44.12 21.6275 42.7251M19.0124 17.9319C19.4988 18.4862 19.9592 18.9676 20.2827 19.2925C20.3522 19.4437 20.5098 19.867 20.5838 20.3508C21.0354 21.5098 19.7308 22.8704 19.5301 25.1885C19.4164 26.5015 19.2061 27.8469 19.2001 29.4719M19.0124 17.9319C18.5494 18.4863 17.3122 19.7763 16.0678 20.502C14.5123 21.409 10.448 25.642 9.99638 26.5491C9.54479 27.4562 8.08965 29.3711 7.68823 29.9254C7.28681 30.4797 5.73132 32.6466 7.33699 34.8135C8.94266 36.9804 14.9138 41.1126 17.1215 44.4889C18.8878 47.1899 18.6019 46.8866 18.7272 47.0085M19.2001 29.4719C19.1956 30.7157 19.3108 32.1233 19.6806 33.8056C20.363 36.9098 20.5002 38.6937 20.4834 39.1976C20.5002 39.4496 20.6641 40.1652 21.1859 41.0118C21.3719 41.3135 21.5167 41.9527 21.6275 42.7251M19.2001 29.4719C17.7713 30.4797 14.8335 32.5559 14.5123 32.7978C14.315 32.9464 14.0933 33.2047 13.8713 33.4529M13.2077 34.0576C13.4118 33.9551 13.6418 33.7094 13.8713 33.4529M13.8713 33.4529C14.6369 33.9232 16.2886 35.0654 16.7703 35.8717C17.3724 36.8796 19.7308 40.911 20.8347 41.9188C21.7178 42.7251 21.487 42.574 21.6275 42.7251" stroke="url(#paint2_linear_338_1387)"/>
<defs>
<linearGradient id="paint0_linear_338_1387" x1="39" y1="25" x2="180" y2="25" gradientUnits="userSpaceOnUse">
<stop stop-color="#F6F3BA"/>
<stop offset="1" stop-color="#D6EBEB"/>
</linearGradient>
<linearGradient id="paint1_linear_338_1387" x1="21" y1="6" x2="21" y2="46.625" gradientUnits="userSpaceOnUse">
<stop stop-color="#F6F3BA"/>
<stop offset="1" stop-color="#D6EBEB"/>
</linearGradient>
<linearGradient id="paint2_linear_338_1387" x1="19.4375" y1="1" x2="19.4375" y2="49.125" gradientUnits="userSpaceOnUse">
<stop stop-color="#F6F3BA"/>
<stop offset="1" stop-color="#D6EBEB"/>
</linearGradient>
</defs>
</svg>
