<svg width="23" height="23" viewBox="0 0 23 23" fill="none" xmlns="http://www.w3.org/2000/svg">
<circle cx="11.5" cy="11.5" r="11.5" fill="#896CFE"/>
<path d="M10.7929 5.66347L15.9956 9.20274C16.3344 9.43336 16.609 9.7311 16.7982 10.0727C16.9873 10.4142 17.0857 10.7904 17.0857 11.1717C17.0857 11.553 16.9873 11.929 16.7982 12.2706C16.609 12.6122 16.3344 12.9099 15.9956 13.1405L10.7929 16.6828C10.463 16.9063 10.0702 17.0429 9.65852 17.0773C9.2468 17.1117 8.83239 17.0425 8.46213 16.8775C8.09186 16.7125 7.78031 16.4582 7.56239 16.1433C7.34447 15.8283 7.22882 15.4651 7.22852 15.0945V7.2488C7.22819 6.87798 7.3435 6.51441 7.56141 6.19919C7.77932 5.88396 8.09119 5.6296 8.4618 5.46476C8.83242 5.29992 9.24713 5.23115 9.65901 5.26626C10.0709 5.30138 10.4636 5.43897 10.7929 5.66347Z" fill="white"/>
</svg>
