<svg width="9" height="9" viewBox="0 0 9 9" fill="none" xmlns="http://www.w3.org/2000/svg">
<path d="M4.5 9.00537C5.69336 9.00499 6.83774 8.5307 7.68157 7.68674C8.5254 6.84277 8.99962 5.69822 9 4.50467C8.99962 3.31126 8.52534 2.16683 7.68146 1.3231C6.83759 0.479362 5.69323 0.00537103 4.5 0.00537109C3.30677 0.00537103 2.16237 0.479362 1.3185 1.3231C0.474627 2.16683 0.000379284 3.31126 0 4.50467C0.000379145 5.69822 0.474598 6.84277 1.31843 7.68674C2.16226 8.5307 3.30664 9.00499 4.5 9.00537ZM2.55036 5.65915L4.21392 4.3716V2.56189C4.21392 2.48601 4.24405 2.41322 4.2977 2.35956C4.35135 2.3059 4.42413 2.27577 4.5 2.27577C4.57587 2.27577 4.64862 2.3059 4.70227 2.35956C4.75592 2.41322 4.78608 2.48601 4.78608 2.56189V4.5118C4.78608 4.5118 4.78608 4.52326 4.78608 4.52898C4.78608 4.5347 4.78608 4.549 4.78608 4.55902C4.78436 4.56777 4.78196 4.57637 4.77892 4.58476C4.77974 4.5938 4.77974 4.60293 4.77892 4.61197L4.76746 4.63771L4.75461 4.66202L4.73886 4.68493C4.73343 4.69228 4.72721 4.69898 4.72028 4.70494C4.71387 4.7128 4.70666 4.71997 4.69881 4.72639L4.68735 4.73785L2.91225 6.11841C2.85244 6.16471 2.77673 6.18542 2.70168 6.17604C2.62662 6.16665 2.55832 6.12793 2.51174 6.06832C2.48684 6.03918 2.46805 6.00533 2.45649 5.96878C2.44493 5.93223 2.44084 5.89371 2.44444 5.85555C2.44805 5.81738 2.45928 5.78035 2.47748 5.74661C2.49568 5.71287 2.52045 5.68312 2.55036 5.65915Z" fill="#896CFE"/>
</svg>
