<svg width="8" height="7" viewBox="0 0 8 7" fill="none" xmlns="http://www.w3.org/2000/svg">
<path d="M3.96993 6.50101C4.81268 6.50074 5.62085 6.16766 6.21677 5.57498C6.81269 4.9823 7.14759 4.17852 7.14786 3.34034C7.14759 2.50226 6.81265 1.69857 6.2167 1.10605C5.62075 0.513529 4.81259 0.180664 3.96993 0.180664C3.12726 0.180664 2.31908 0.513529 1.72313 1.10605C1.12718 1.69857 0.79226 2.50226 0.791992 3.34034C0.79226 4.17852 1.12716 4.9823 1.72308 5.57498C2.319 6.16766 3.12717 6.50074 3.96993 6.50101ZM2.59308 4.15109L3.76789 3.24689V1.97601C3.76789 1.92272 3.78917 1.8716 3.82706 1.83392C3.86495 1.79623 3.91634 1.77507 3.96993 1.77507C4.02351 1.77507 4.07488 1.79623 4.11277 1.83392C4.15065 1.8716 4.17196 1.92272 4.17196 1.97601V3.34535C4.17196 3.34535 4.17196 3.3534 4.17196 3.35742C4.17196 3.36143 4.17196 3.37148 4.17196 3.37851C4.17074 3.38466 4.16905 3.3907 4.1669 3.39659C4.16748 3.40294 4.16748 3.40934 4.1669 3.41569L4.15881 3.43377L4.14973 3.45084L4.13861 3.46693C4.13477 3.47209 4.13038 3.4768 4.12549 3.48099C4.12096 3.4865 4.11587 3.49154 4.11033 3.49605L4.10224 3.50409L2.84865 4.47361C2.8064 4.50612 2.75294 4.52067 2.69994 4.51408C2.64693 4.50749 2.59869 4.48029 2.5658 4.43843C2.54822 4.41797 2.53495 4.39419 2.52678 4.36853C2.51862 4.34286 2.51573 4.31581 2.51828 4.28901C2.52082 4.26221 2.52876 4.2362 2.54161 4.21251C2.55446 4.18881 2.57195 4.16792 2.59308 4.15109Z" fill="white"/>
</svg>
