<svg width="50" height="49" viewBox="0 0 50 49" fill="none" xmlns="http://www.w3.org/2000/svg">
<path d="M0.528 41.68C0.528 41.168 0.616 40.664 0.792 40.168C0.976 39.664 1.24 39.208 1.584 38.8C1.928 38.384 2.348 38.052 2.844 37.804C3.348 37.556 3.92 37.432 4.56 37.432C5.32 37.432 5.968 37.608 6.504 37.96C7.04 38.304 7.44 38.748 7.704 39.292L7.2 39.58C7 39.188 6.752 38.876 6.456 38.644C6.168 38.412 5.856 38.248 5.52 38.152C5.184 38.048 4.848 37.996 4.512 37.996C3.976 37.996 3.496 38.104 3.072 38.32C2.656 38.536 2.304 38.824 2.016 39.184C1.728 39.544 1.508 39.944 1.356 40.384C1.212 40.824 1.14 41.268 1.14 41.716C1.14 42.22 1.228 42.7 1.404 43.156C1.58 43.604 1.82 44.004 2.124 44.356C2.436 44.708 2.796 44.988 3.204 45.196C3.62 45.404 4.068 45.508 4.548 45.508C4.892 45.508 5.24 45.452 5.592 45.34C5.952 45.22 6.288 45.04 6.6 44.8C6.912 44.552 7.164 44.232 7.356 43.84L7.884 44.092C7.7 44.516 7.424 44.876 7.056 45.172C6.688 45.468 6.28 45.692 5.832 45.844C5.384 45.996 4.94 46.072 4.5 46.072C3.924 46.072 3.392 45.948 2.904 45.7C2.416 45.444 1.992 45.108 1.632 44.692C1.28 44.268 1.008 43.796 0.816 43.276C0.624 42.748 0.528 42.216 0.528 41.68ZM8.70516 44.2C8.70516 43.824 8.81716 43.5 9.04116 43.228C9.26516 42.948 9.57316 42.732 9.96516 42.58C10.3572 42.42 10.8092 42.34 11.3212 42.34C11.6412 42.34 11.9732 42.368 12.3172 42.424C12.6612 42.48 12.9692 42.556 13.2412 42.652V42.064C13.2412 41.488 13.0732 41.028 12.7372 40.684C12.4092 40.34 11.9532 40.168 11.3692 40.168C11.0572 40.168 10.7332 40.232 10.3972 40.36C10.0612 40.488 9.71716 40.672 9.36516 40.912L9.11316 40.48C9.52116 40.208 9.91316 40.004 10.2892 39.868C10.6732 39.724 11.0532 39.652 11.4292 39.652C12.1732 39.652 12.7612 39.872 13.1932 40.312C13.6252 40.752 13.8412 41.352 13.8412 42.112V45.208C13.8412 45.304 13.8612 45.376 13.9012 45.424C13.9492 45.472 14.0172 45.5 14.1052 45.508V46C14.0332 46.008 13.9732 46.012 13.9252 46.012C13.8772 46.012 13.8372 46.012 13.8052 46.012C13.6532 45.988 13.5332 45.924 13.4452 45.82C13.3652 45.716 13.3212 45.6 13.3132 45.472V44.98C13.0252 45.34 12.6532 45.62 12.1972 45.82C11.7492 46.02 11.2772 46.12 10.7812 46.12C10.3892 46.12 10.0332 46.036 9.71316 45.868C9.40116 45.7 9.15316 45.472 8.96916 45.184C8.79316 44.888 8.70516 44.56 8.70516 44.2ZM13.0012 44.716C13.0812 44.612 13.1412 44.512 13.1812 44.416C13.2212 44.32 13.2412 44.232 13.2412 44.152V43.12C12.9532 43.008 12.6532 42.924 12.3412 42.868C12.0292 42.812 11.7092 42.784 11.3812 42.784C10.7572 42.784 10.2492 42.908 9.85716 43.156C9.47316 43.404 9.28116 43.74 9.28116 44.164C9.28116 44.428 9.34916 44.672 9.48516 44.896C9.62116 45.12 9.80916 45.3 10.0492 45.436C10.2972 45.572 10.5812 45.64 10.9012 45.64C11.3492 45.64 11.7612 45.556 12.1372 45.388C12.5212 45.212 12.8092 44.988 13.0012 44.716ZM15.7145 37.24H16.3265V44.764C16.3265 45.052 16.3865 45.252 16.5065 45.364C16.6265 45.468 16.7825 45.52 16.9745 45.52C17.1025 45.52 17.2345 45.508 17.3705 45.484C17.5065 45.46 17.6265 45.428 17.7305 45.388L17.8505 45.88C17.7145 45.928 17.5465 45.972 17.3465 46.012C17.1465 46.052 16.9745 46.072 16.8305 46.072C16.4945 46.072 16.2225 45.972 16.0145 45.772C15.8145 45.564 15.7145 45.288 15.7145 44.944V37.24ZM21.4239 46.12C20.9839 46.12 20.5759 46.036 20.1999 45.868C19.8239 45.692 19.4959 45.456 19.2159 45.16C18.9439 44.856 18.7279 44.508 18.5679 44.116C18.4159 43.716 18.3399 43.296 18.3399 42.856C18.3399 42.264 18.4719 41.728 18.7359 41.248C18.9999 40.768 19.3639 40.384 19.8279 40.096C20.2919 39.8 20.8119 39.652 21.3879 39.652C21.9799 39.652 22.5039 39.8 22.9599 40.096C23.4159 40.392 23.7759 40.784 24.0399 41.272C24.3119 41.752 24.4479 42.28 24.4479 42.856C24.4479 42.904 24.4479 42.952 24.4479 43C24.4479 43.048 24.4439 43.088 24.4359 43.12H18.9639C18.9959 43.592 19.1279 44.02 19.3599 44.404C19.5919 44.788 19.8879 45.092 20.2479 45.316C20.6159 45.532 21.0159 45.64 21.4479 45.64C21.8799 45.64 22.2879 45.528 22.6719 45.304C23.0559 45.08 23.3239 44.792 23.4759 44.44L24.0039 44.584C23.8839 44.88 23.6919 45.144 23.4279 45.376C23.1719 45.608 22.8679 45.792 22.5159 45.928C22.1719 46.056 21.8079 46.12 21.4239 46.12ZM18.9399 42.652H23.8719C23.8399 42.164 23.7119 41.732 23.4879 41.356C23.2639 40.98 22.9679 40.684 22.5999 40.468C22.2399 40.252 21.8399 40.144 21.3999 40.144C20.9599 40.144 20.5599 40.252 20.1999 40.468C19.8399 40.684 19.5479 40.98 19.3239 41.356C19.0999 41.732 18.9719 42.164 18.9399 42.652ZM30.868 46H30.268V42.52C30.268 41.72 30.152 41.136 29.92 40.768C29.696 40.392 29.336 40.204 28.84 40.204C28.488 40.204 28.14 40.288 27.796 40.456C27.46 40.624 27.164 40.856 26.908 41.152C26.66 41.44 26.48 41.768 26.368 42.136V46H25.768V39.76H26.332V41.248C26.5 40.928 26.724 40.652 27.004 40.42C27.284 40.18 27.596 39.992 27.94 39.856C28.284 39.72 28.64 39.652 29.008 39.652C29.352 39.652 29.64 39.716 29.872 39.844C30.112 39.964 30.304 40.14 30.448 40.372C30.6 40.604 30.708 40.892 30.772 41.236C30.836 41.58 30.868 41.972 30.868 42.412V46ZM32.2501 42.892C32.2501 42.308 32.3741 41.772 32.6221 41.284C32.8701 40.796 33.2101 40.404 33.6421 40.108C34.0741 39.804 34.5661 39.652 35.1181 39.652C35.6621 39.652 36.1421 39.796 36.5581 40.084C36.9821 40.372 37.3141 40.716 37.5541 41.116V37.24H38.1541V45.208C38.1541 45.304 38.1741 45.376 38.2141 45.424C38.2621 45.472 38.3261 45.5 38.4061 45.508V46C38.2781 46.016 38.1821 46.02 38.1181 46.012C37.9741 45.988 37.8541 45.92 37.7581 45.808C37.6621 45.696 37.6141 45.576 37.6141 45.448V44.752C37.3581 45.168 37.0141 45.5 36.5821 45.748C36.1501 45.996 35.7061 46.12 35.2501 46.12C34.8181 46.12 34.4181 46.032 34.0501 45.856C33.6821 45.672 33.3621 45.428 33.0901 45.124C32.8261 44.82 32.6181 44.476 32.4661 44.092C32.3221 43.708 32.2501 43.308 32.2501 42.892ZM37.5541 43.9V41.848C37.4421 41.544 37.2621 41.268 37.0141 41.02C36.7661 40.764 36.4861 40.564 36.1741 40.42C35.8621 40.268 35.5541 40.192 35.2501 40.192C34.8901 40.192 34.5621 40.268 34.2661 40.42C33.9781 40.572 33.7261 40.776 33.5101 41.032C33.3021 41.288 33.1421 41.58 33.0301 41.908C32.9181 42.228 32.8621 42.56 32.8621 42.904C32.8621 43.256 32.9261 43.596 33.0541 43.924C33.1821 44.244 33.3581 44.532 33.5821 44.788C33.8141 45.036 34.0781 45.232 34.3741 45.376C34.6781 45.512 35.0061 45.58 35.3581 45.58C35.5741 45.58 35.8021 45.536 36.0421 45.448C36.2901 45.36 36.5221 45.24 36.7381 45.088C36.9621 44.928 37.1461 44.748 37.2901 44.548C37.4421 44.34 37.5301 44.124 37.5541 43.9ZM39.5489 44.2C39.5489 43.824 39.6609 43.5 39.8849 43.228C40.1089 42.948 40.4169 42.732 40.8089 42.58C41.2009 42.42 41.6529 42.34 42.1649 42.34C42.4849 42.34 42.8169 42.368 43.1609 42.424C43.5049 42.48 43.8129 42.556 44.0849 42.652V42.064C44.0849 41.488 43.9169 41.028 43.5809 40.684C43.2529 40.34 42.7969 40.168 42.2129 40.168C41.9009 40.168 41.5769 40.232 41.2409 40.36C40.9049 40.488 40.5609 40.672 40.2089 40.912L39.9569 40.48C40.3649 40.208 40.7569 40.004 41.1329 39.868C41.5169 39.724 41.8969 39.652 42.2729 39.652C43.0169 39.652 43.6049 39.872 44.0369 40.312C44.4689 40.752 44.6849 41.352 44.6849 42.112V45.208C44.6849 45.304 44.7049 45.376 44.7449 45.424C44.7929 45.472 44.8609 45.5 44.9489 45.508V46C44.8769 46.008 44.8169 46.012 44.7689 46.012C44.7209 46.012 44.6809 46.012 44.6489 46.012C44.4969 45.988 44.3769 45.924 44.2889 45.82C44.2089 45.716 44.1649 45.6 44.1569 45.472V44.98C43.8689 45.34 43.4969 45.62 43.0409 45.82C42.5929 46.02 42.1209 46.12 41.6249 46.12C41.2329 46.12 40.8769 46.036 40.5569 45.868C40.2449 45.7 39.9969 45.472 39.8129 45.184C39.6369 44.888 39.5489 44.56 39.5489 44.2ZM43.8449 44.716C43.9249 44.612 43.9849 44.512 44.0249 44.416C44.0649 44.32 44.0849 44.232 44.0849 44.152V43.12C43.7969 43.008 43.4969 42.924 43.1849 42.868C42.8729 42.812 42.5529 42.784 42.2249 42.784C41.6009 42.784 41.0929 42.908 40.7009 43.156C40.3169 43.404 40.1249 43.74 40.1249 44.164C40.1249 44.428 40.1929 44.672 40.3289 44.896C40.4649 45.12 40.6529 45.3 40.8929 45.436C41.1409 45.572 41.4249 45.64 41.7449 45.64C42.1929 45.64 42.6049 45.556 42.9809 45.388C43.3649 45.212 43.6529 44.988 43.8449 44.716ZM49.4622 40.3C48.9022 40.316 48.4102 40.484 47.9862 40.804C47.5702 41.116 47.2782 41.548 47.1102 42.1V46H46.5102V39.76H47.0862V41.296C47.3022 40.856 47.5902 40.5 47.9502 40.228C48.3102 39.948 48.6902 39.788 49.0902 39.748C49.1702 39.74 49.2422 39.736 49.3062 39.736C49.3702 39.736 49.4222 39.736 49.4622 39.736V40.3Z" fill="black"/>
<path d="M19 4.11111H17.8003C16.1201 4.11111 15.2794 4.11111 14.6377 4.4502C14.0732 4.74847 13.6146 5.22407 13.327 5.80946C13 6.47497 13 7.34681 13 9.08919V10.3333M19 4.11111H31M19 4.11111V1M31 4.11111H32.2003C33.8805 4.11111 34.7194 4.11111 35.3611 4.4502C35.9256 4.74847 36.3857 5.22407 36.6733 5.80946C37 6.47431 37 7.3451 37 9.08408V10.3333M31 4.11111V1M13 10.3333V24.0225C13 25.7649 13 26.6357 13.327 27.3012C13.6146 27.8865 14.0732 28.363 14.6377 28.6612C15.2788 29 16.1185 29 17.7954 29H32.2046C33.8815 29 34.72 29 35.3611 28.6612C35.9256 28.363 36.3857 27.8865 36.6733 27.3012C37 26.6363 37 25.7668 37 24.0278V10.3333M13 10.3333H37M31 22.7778H31.003L31.0029 22.7809L31 22.7808V22.7778ZM25 22.7778H25.003L25.0029 22.7809L25 22.7808V22.7778ZM19 22.7778H19.003L19.0029 22.7809L19 22.7808V22.7778ZM31.0029 16.5556V16.5587L31 16.5586V16.5556H31.0029ZM25 16.5556H25.003L25.0029 16.5587L25 16.5586V16.5556ZM19 16.5556H19.003L19.0029 16.5587L19 16.5586V16.5556Z" stroke="#F6F3BA" stroke-width="2" stroke-linecap="round" stroke-linejoin="round"/>
</svg>
