<svg width="34" height="50" viewBox="0 0 34 50" fill="none" xmlns="http://www.w3.org/2000/svg">
<path d="M7.716 38.48V47H7.104V42.92H1.728V47H1.116V38.48H1.728V42.368H7.104V38.48H7.716ZM12.2825 47.12C11.8425 47.12 11.4345 47.036 11.0585 46.868C10.6905 46.7 10.3705 46.468 10.0985 46.172C9.82647 45.868 9.61447 45.52 9.46247 45.128C9.31047 44.736 9.23447 44.324 9.23447 43.892C9.23447 43.452 9.31047 43.04 9.46247 42.656C9.61447 42.264 9.82647 41.92 10.0985 41.624C10.3785 41.32 10.7025 41.084 11.0705 40.916C11.4465 40.74 11.8505 40.652 12.2825 40.652C12.7145 40.652 13.1145 40.74 13.4825 40.916C13.8505 41.084 14.1745 41.32 14.4545 41.624C14.7345 41.92 14.9505 42.264 15.1025 42.656C15.2545 43.04 15.3305 43.452 15.3305 43.892C15.3305 44.324 15.2545 44.736 15.1025 45.128C14.9505 45.52 14.7345 45.868 14.4545 46.172C14.1825 46.468 13.8585 46.7 13.4825 46.868C13.1145 47.036 12.7145 47.12 12.2825 47.12ZM9.83447 43.916C9.83447 44.404 9.94247 44.852 10.1585 45.26C10.3825 45.66 10.6785 45.98 11.0465 46.22C11.4145 46.46 11.8225 46.58 12.2705 46.58C12.7185 46.58 13.1265 46.46 13.4945 46.22C13.8705 45.972 14.1665 45.644 14.3825 45.236C14.6065 44.82 14.7185 44.368 14.7185 43.88C14.7185 43.392 14.6065 42.944 14.3825 42.536C14.1665 42.128 13.8705 41.804 13.4945 41.564C13.1265 41.316 12.7225 41.192 12.2825 41.192C11.8345 41.192 11.4265 41.316 11.0585 41.564C10.6905 41.812 10.3945 42.14 10.1705 42.548C9.94647 42.956 9.83447 43.412 9.83447 43.916ZM25.936 47H25.336V43.52C25.336 42.728 25.212 42.144 24.964 41.768C24.724 41.392 24.352 41.204 23.848 41.204C23.336 41.204 22.88 41.388 22.48 41.756C22.088 42.116 21.812 42.58 21.652 43.148V47H21.052V43.52C21.052 42.72 20.932 42.136 20.692 41.768C20.452 41.392 20.08 41.204 19.576 41.204C19.064 41.204 18.608 41.384 18.208 41.744C17.816 42.096 17.536 42.56 17.368 43.136V47H16.768V40.76H17.332V42.248C17.596 41.736 17.936 41.344 18.352 41.072C18.768 40.792 19.224 40.652 19.72 40.652C20.24 40.652 20.664 40.808 20.992 41.12C21.328 41.424 21.528 41.832 21.592 42.344C21.888 41.784 22.24 41.364 22.648 41.084C23.056 40.796 23.52 40.652 24.04 40.652C24.384 40.652 24.672 40.716 24.904 40.844C25.144 40.964 25.34 41.144 25.492 41.384C25.652 41.616 25.764 41.904 25.828 42.248C25.9 42.592 25.936 42.98 25.936 43.412V47ZM30.4005 47.12C29.9605 47.12 29.5525 47.036 29.1765 46.868C28.8005 46.692 28.4725 46.456 28.1925 46.16C27.9205 45.856 27.7045 45.508 27.5445 45.116C27.3925 44.716 27.3165 44.296 27.3165 43.856C27.3165 43.264 27.4485 42.728 27.7125 42.248C27.9765 41.768 28.3405 41.384 28.8045 41.096C29.2685 40.8 29.7885 40.652 30.3645 40.652C30.9565 40.652 31.4805 40.8 31.9365 41.096C32.3925 41.392 32.7525 41.784 33.0165 42.272C33.2885 42.752 33.4245 43.28 33.4245 43.856C33.4245 43.904 33.4245 43.952 33.4245 44C33.4245 44.048 33.4205 44.088 33.4125 44.12H27.9405C27.9725 44.592 28.1045 45.02 28.3365 45.404C28.5685 45.788 28.8645 46.092 29.2245 46.316C29.5925 46.532 29.9925 46.64 30.4245 46.64C30.8565 46.64 31.2645 46.528 31.6485 46.304C32.0325 46.08 32.3005 45.792 32.4525 45.44L32.9805 45.584C32.8605 45.88 32.6685 46.144 32.4045 46.376C32.1485 46.608 31.8445 46.792 31.4925 46.928C31.1485 47.056 30.7845 47.12 30.4005 47.12ZM27.9165 43.652H32.8485C32.8165 43.164 32.6885 42.732 32.4645 42.356C32.2405 41.98 31.9445 41.684 31.5765 41.468C31.2165 41.252 30.8165 41.144 30.3765 41.144C29.9365 41.144 29.5365 41.252 29.1765 41.468C28.8165 41.684 28.5245 41.98 28.3005 42.356C28.0765 42.732 27.9485 43.164 27.9165 43.652Z" fill="black"/>
<path d="M5 11.9998L17 2.6665L29 11.9998V26.6665C29 27.3737 28.719 28.052 28.219 28.5521C27.7189 29.0522 27.0406 29.3332 26.3333 29.3332H7.66667C6.95942 29.3332 6.28115 29.0522 5.78105 28.5521C5.28095 28.052 5 27.3737 5 26.6665V11.9998Z" stroke="black" stroke-width="2" stroke-linecap="round" stroke-linejoin="round"/>
<path d="M13 29.3333V16H21V29.3333" stroke="black" stroke-width="2" stroke-linecap="round" stroke-linejoin="round"/>
</svg>
