<svg width="35" height="50" viewBox="0 0 35 50" fill="none" xmlns="http://www.w3.org/2000/svg">
<path d="M1.116 47V38.48H4.62C4.98 38.48 5.308 38.556 5.604 38.708C5.908 38.86 6.172 39.064 6.396 39.32C6.62 39.568 6.792 39.848 6.912 40.16C7.04 40.472 7.104 40.792 7.104 41.12C7.104 41.576 7 42.008 6.792 42.416C6.592 42.816 6.312 43.144 5.952 43.4C5.6 43.656 5.18 43.784 4.692 43.784H1.728V47H1.116ZM1.728 43.22H4.668C5.044 43.22 5.368 43.12 5.64 42.92C5.912 42.72 6.12 42.46 6.264 42.14C6.408 41.82 6.48 41.48 6.48 41.12C6.48 40.744 6.392 40.4 6.216 40.088C6.048 39.768 5.82 39.512 5.532 39.32C5.252 39.128 4.94 39.032 4.596 39.032H1.728V43.22ZM11.3411 41.3C10.7811 41.316 10.2891 41.484 9.86513 41.804C9.44913 42.116 9.15713 42.548 8.98913 43.1V47H8.38913V40.76H8.96513V42.296C9.18113 41.856 9.46913 41.5 9.82913 41.228C10.1891 40.948 10.5691 40.788 10.9691 40.748C11.0491 40.74 11.1211 40.736 11.1851 40.736C11.2491 40.736 11.3011 40.736 11.3411 40.736V41.3ZM14.8489 47.12C14.4089 47.12 14.0009 47.036 13.6249 46.868C13.2569 46.7 12.9369 46.468 12.6649 46.172C12.3929 45.868 12.1809 45.52 12.0289 45.128C11.8769 44.736 11.8009 44.324 11.8009 43.892C11.8009 43.452 11.8769 43.04 12.0289 42.656C12.1809 42.264 12.3929 41.92 12.6649 41.624C12.9449 41.32 13.2689 41.084 13.6369 40.916C14.0129 40.74 14.4169 40.652 14.8489 40.652C15.2809 40.652 15.6809 40.74 16.0489 40.916C16.4169 41.084 16.7409 41.32 17.0209 41.624C17.3009 41.92 17.5169 42.264 17.6689 42.656C17.8209 43.04 17.8969 43.452 17.8969 43.892C17.8969 44.324 17.8209 44.736 17.6689 45.128C17.5169 45.52 17.3009 45.868 17.0209 46.172C16.7489 46.468 16.4249 46.7 16.0489 46.868C15.6809 47.036 15.2809 47.12 14.8489 47.12ZM12.4009 43.916C12.4009 44.404 12.5089 44.852 12.7249 45.26C12.9489 45.66 13.2449 45.98 13.6129 46.22C13.9809 46.46 14.3889 46.58 14.8369 46.58C15.2849 46.58 15.6929 46.46 16.0609 46.22C16.4369 45.972 16.7329 45.644 16.9489 45.236C17.1729 44.82 17.2849 44.368 17.2849 43.88C17.2849 43.392 17.1729 42.944 16.9489 42.536C16.7329 42.128 16.4369 41.804 16.0609 41.564C15.6929 41.316 15.2889 41.192 14.8489 41.192C14.4009 41.192 13.9929 41.316 13.6249 41.564C13.2569 41.812 12.9609 42.14 12.7369 42.548C12.5129 42.956 12.4009 43.412 12.4009 43.916ZM19.5167 41.252H18.6407V40.76H19.5167V40.556C19.5167 40.276 19.5567 39.996 19.6367 39.716C19.7167 39.428 19.8407 39.164 20.0087 38.924C20.1767 38.684 20.3927 38.492 20.6567 38.348C20.9287 38.196 21.2527 38.12 21.6287 38.12C21.9167 38.12 22.1767 38.152 22.4087 38.216C22.6407 38.28 22.8327 38.352 22.9847 38.432C23.1367 38.512 23.2407 38.576 23.2967 38.624L22.9967 39.044C22.8847 38.948 22.7087 38.86 22.4687 38.78C22.2287 38.7 21.9567 38.66 21.6527 38.66C21.2927 38.66 20.9967 38.756 20.7647 38.948C20.5407 39.14 20.3767 39.38 20.2727 39.668C20.1687 39.956 20.1167 40.248 20.1167 40.544V40.76H23.1767V47H22.5767V41.252H20.1167V47H19.5167V41.252ZM25.1012 38.24H25.7132V45.764C25.7132 46.052 25.7732 46.252 25.8932 46.364C26.0132 46.468 26.1692 46.52 26.3612 46.52C26.4892 46.52 26.6212 46.508 26.7572 46.484C26.8932 46.46 27.0132 46.428 27.1172 46.388L27.2372 46.88C27.1012 46.928 26.9332 46.972 26.7332 47.012C26.5332 47.052 26.3612 47.072 26.2172 47.072C25.8812 47.072 25.6092 46.972 25.4012 46.772C25.2012 46.564 25.1012 46.288 25.1012 45.944V38.24ZM30.8107 47.12C30.3707 47.12 29.9627 47.036 29.5867 46.868C29.2107 46.692 28.8827 46.456 28.6027 46.16C28.3307 45.856 28.1147 45.508 27.9547 45.116C27.8027 44.716 27.7267 44.296 27.7267 43.856C27.7267 43.264 27.8587 42.728 28.1227 42.248C28.3867 41.768 28.7507 41.384 29.2147 41.096C29.6787 40.8 30.1987 40.652 30.7747 40.652C31.3667 40.652 31.8907 40.8 32.3467 41.096C32.8027 41.392 33.1627 41.784 33.4267 42.272C33.6987 42.752 33.8347 43.28 33.8347 43.856C33.8347 43.904 33.8347 43.952 33.8347 44C33.8347 44.048 33.8307 44.088 33.8227 44.12H28.3507C28.3827 44.592 28.5147 45.02 28.7467 45.404C28.9787 45.788 29.2747 46.092 29.6347 46.316C30.0027 46.532 30.4027 46.64 30.8347 46.64C31.2667 46.64 31.6747 46.528 32.0587 46.304C32.4427 46.08 32.7107 45.792 32.8627 45.44L33.3907 45.584C33.2707 45.88 33.0787 46.144 32.8147 46.376C32.5587 46.608 32.2547 46.792 31.9027 46.928C31.5587 47.056 31.1947 47.12 30.8107 47.12ZM28.3267 43.652H33.2587C33.2267 43.164 33.0987 42.732 32.8747 42.356C32.6507 41.98 32.3547 41.684 31.9867 41.468C31.6267 41.252 31.2267 41.144 30.7867 41.144C30.3467 41.144 29.9467 41.252 29.5867 41.468C29.2267 41.684 28.9347 41.98 28.7107 42.356C28.4867 42.732 28.3587 43.164 28.3267 43.652Z" fill="black"/>
<path d="M27.6668 28V25.3333C27.6668 23.9188 27.1049 22.5623 26.1047 21.5621C25.1045 20.5619 23.748 20 22.3335 20H11.6668C10.2523 20 8.89579 20.5619 7.89559 21.5621C6.8954 22.5623 6.3335 23.9188 6.3335 25.3333V28" stroke="#F6F3BA" stroke-width="2" stroke-linecap="round" stroke-linejoin="round"/>
<path d="M16.9998 14.6667C19.9454 14.6667 22.3332 12.2789 22.3332 9.33333C22.3332 6.38781 19.9454 4 16.9998 4C14.0543 4 11.6665 6.38781 11.6665 9.33333C11.6665 12.2789 14.0543 14.6667 16.9998 14.6667Z" stroke="#F6F3BA" stroke-width="2" stroke-linecap="round" stroke-linejoin="round"/>
</svg>
