<svg width="43" height="50" viewBox="0 0 43 50" fill="none" xmlns="http://www.w3.org/2000/svg">
<path d="M7.068 39.032H3.948V47H3.336V39.032H0.216V38.48H7.068V39.032ZM9.99347 41.3C9.43347 41.316 8.94147 41.484 8.51747 41.804C8.10147 42.116 7.80947 42.548 7.64147 43.1V47H7.04147V40.76H7.61747V42.296C7.83347 41.856 8.12147 41.5 8.48147 41.228C8.84147 40.948 9.22147 40.788 9.62147 40.748C9.70147 40.74 9.77347 40.736 9.83747 40.736C9.90147 40.736 9.95347 40.736 9.99347 40.736V41.3ZM10.5684 45.2C10.5684 44.824 10.6804 44.5 10.9044 44.228C11.1284 43.948 11.4364 43.732 11.8284 43.58C12.2204 43.42 12.6724 43.34 13.1844 43.34C13.5044 43.34 13.8364 43.368 14.1804 43.424C14.5244 43.48 14.8324 43.556 15.1044 43.652V43.064C15.1044 42.488 14.9364 42.028 14.6004 41.684C14.2724 41.34 13.8164 41.168 13.2324 41.168C12.9204 41.168 12.5964 41.232 12.2604 41.36C11.9244 41.488 11.5804 41.672 11.2284 41.912L10.9764 41.48C11.3844 41.208 11.7764 41.004 12.1524 40.868C12.5364 40.724 12.9164 40.652 13.2924 40.652C14.0364 40.652 14.6244 40.872 15.0564 41.312C15.4884 41.752 15.7044 42.352 15.7044 43.112V46.208C15.7044 46.304 15.7244 46.376 15.7644 46.424C15.8124 46.472 15.8804 46.5 15.9684 46.508V47C15.8964 47.008 15.8364 47.012 15.7884 47.012C15.7404 47.012 15.7004 47.012 15.6684 47.012C15.5164 46.988 15.3964 46.924 15.3084 46.82C15.2284 46.716 15.1844 46.6 15.1764 46.472V45.98C14.8884 46.34 14.5164 46.62 14.0604 46.82C13.6124 47.02 13.1404 47.12 12.6444 47.12C12.2524 47.12 11.8964 47.036 11.5764 46.868C11.2644 46.7 11.0164 46.472 10.8324 46.184C10.6564 45.888 10.5684 45.56 10.5684 45.2ZM14.8644 45.716C14.9444 45.612 15.0044 45.512 15.0444 45.416C15.0844 45.32 15.1044 45.232 15.1044 45.152V44.12C14.8164 44.008 14.5164 43.924 14.2044 43.868C13.8924 43.812 13.5724 43.784 13.2444 43.784C12.6204 43.784 12.1124 43.908 11.7204 44.156C11.3364 44.404 11.1444 44.74 11.1444 45.164C11.1444 45.428 11.2124 45.672 11.3484 45.896C11.4844 46.12 11.6724 46.3 11.9124 46.436C12.1604 46.572 12.4444 46.64 12.7644 46.64C13.2124 46.64 13.6244 46.556 14.0004 46.388C14.3844 46.212 14.6724 45.988 14.8644 45.716ZM17.5298 47V40.76H18.1298V47H17.5298ZM17.5298 39.344V38.24H18.1298V39.344H17.5298ZM25.1141 47H24.5141V43.52C24.5141 42.72 24.3981 42.136 24.1661 41.768C23.9421 41.392 23.5821 41.204 23.0861 41.204C22.7341 41.204 22.3861 41.288 22.0421 41.456C21.7061 41.624 21.4101 41.856 21.1541 42.152C20.9061 42.44 20.7261 42.768 20.6141 43.136V47H20.0141V40.76H20.5781V42.248C20.7461 41.928 20.9701 41.652 21.2501 41.42C21.5301 41.18 21.8421 40.992 22.1861 40.856C22.5301 40.72 22.8861 40.652 23.2541 40.652C23.5981 40.652 23.8861 40.716 24.1181 40.844C24.3581 40.964 24.5501 41.14 24.6941 41.372C24.8461 41.604 24.9541 41.892 25.0181 42.236C25.0821 42.58 25.1141 42.972 25.1141 43.412V47ZM26.9282 47V40.76H27.5282V47H26.9282ZM26.9282 39.344V38.24H27.5282V39.344H26.9282ZM34.5126 47H33.9126V43.52C33.9126 42.72 33.7966 42.136 33.5646 41.768C33.3406 41.392 32.9806 41.204 32.4846 41.204C32.1326 41.204 31.7846 41.288 31.4406 41.456C31.1046 41.624 30.8086 41.856 30.5526 42.152C30.3046 42.44 30.1246 42.768 30.0126 43.136V47H29.4126V40.76H29.9766V42.248C30.1446 41.928 30.3686 41.652 30.6486 41.42C30.9286 41.18 31.2406 40.992 31.5846 40.856C31.9286 40.72 32.2846 40.652 32.6526 40.652C32.9966 40.652 33.2846 40.716 33.5166 40.844C33.7566 40.964 33.9486 41.14 34.0926 41.372C34.2446 41.604 34.3526 41.892 34.4166 42.236C34.4806 42.58 34.5126 42.972 34.5126 43.412V47ZM38.8466 47.096C38.4226 47.096 38.0266 47.008 37.6586 46.832C37.2986 46.656 36.9866 46.416 36.7226 46.112C36.4666 45.8 36.2626 45.456 36.1106 45.08C35.9666 44.696 35.8946 44.3 35.8946 43.892C35.8946 43.468 35.9626 43.06 36.0986 42.668C36.2426 42.276 36.4426 41.932 36.6986 41.636C36.9626 41.332 37.2706 41.092 37.6226 40.916C37.9746 40.74 38.3666 40.652 38.7986 40.652C39.3426 40.652 39.8146 40.796 40.2146 41.084C40.6226 41.364 40.9666 41.708 41.2466 42.116V40.76H41.7986V47.12C41.7986 47.68 41.6626 48.152 41.3906 48.536C41.1186 48.92 40.7586 49.204 40.3106 49.388C39.8626 49.58 39.3786 49.676 38.8586 49.676C38.1306 49.676 37.5506 49.544 37.1186 49.28C36.6946 49.016 36.3506 48.668 36.0866 48.236L36.4946 47.96C36.7426 48.376 37.0786 48.684 37.5026 48.884C37.9266 49.084 38.3786 49.184 38.8586 49.184C39.2826 49.184 39.6706 49.104 40.0226 48.944C40.3826 48.792 40.6666 48.56 40.8746 48.248C41.0906 47.944 41.1986 47.568 41.1986 47.12V45.752C40.9506 46.16 40.6106 46.488 40.1786 46.736C39.7546 46.976 39.3106 47.096 38.8466 47.096ZM38.9906 46.58C39.2546 46.58 39.5106 46.532 39.7586 46.436C40.0066 46.34 40.2346 46.212 40.4426 46.052C40.6506 45.884 40.8226 45.7 40.9586 45.5C41.0946 45.3 41.1746 45.1 41.1986 44.9V42.848C41.0786 42.528 40.8946 42.244 40.6466 41.996C40.4066 41.74 40.1346 41.544 39.8306 41.408C39.5266 41.264 39.2146 41.192 38.8946 41.192C38.5186 41.192 38.1826 41.272 37.8866 41.432C37.5906 41.592 37.3386 41.804 37.1306 42.068C36.9306 42.324 36.7746 42.616 36.6626 42.944C36.5586 43.264 36.5066 43.584 36.5066 43.904C36.5066 44.264 36.5706 44.604 36.6986 44.924C36.8266 45.244 37.0026 45.532 37.2266 45.788C37.4586 46.036 37.7226 46.232 38.0186 46.376C38.3226 46.512 38.6466 46.58 38.9906 46.58Z" fill="black"/>
<path fill-rule="evenodd" clip-rule="evenodd" d="M13.2665 15.767V23.534H14.3332H15.3998V20.1861V16.8383H20.9998H26.5998V20.1861V23.534H27.6665H28.7332V15.767V8H27.6665H26.5998V11.3478V14.6957H20.9998H15.3998V11.3478V8H14.3332H13.2665V15.767ZM9.79984 12.4191V14.6957H8.73317H7.6665V15.767V16.8383H8.73317H9.79984V19.1148V21.3914H10.9998H12.1998V15.767V10.1426H10.9998H9.79984V12.4191ZM29.7998 15.767V21.3914H30.9998H32.1998V19.1148V16.8383H33.2665H34.3332V15.767V14.6957H33.2665H32.1998V12.4191V10.1426H30.9998H29.7998V15.767Z" fill="#F6F3BA"/>
</svg>
